<svg xmlns="http://www.w3.org/2000/svg" xmlns:xlink="http://www.w3.org/1999/xlink" fill="none" version="1.1" width="24" height="24" viewBox="0 0 24 24"><defs><clipPath id="master_svg0_io40_18"><rect x="0" y="0" width="24" height="24" rx="0"/></clipPath></defs><g clip-path="url(#master_svg0_io40_18)"><path d="M19.303399668930055,5.3371601C17.934400668930053,4.71103001,16.480498668930053,4.25470018,14.962899668930053,4C14.771899668930054,4.32898998,14.559599668930053,4.77471018,14.410999668930053,5.1249199C12.796899668930054,4.89143991,11.194399568930054,4.89143991,9.602549268930053,5.1249199C9.453969668930053,4.77471018,9.231099868930054,4.32898998,9.050679968930055,4C7.522510268930054,4.25470018,6.068609968930054,4.71103001,4.709149868930053,5.3371601C1.9605300389300537,9.391110399999999,1.2176599489300537,13.3494997,1.5891000029300537,17.2549C3.4144298689300534,18.581499,5.176119768930054,19.387999999999998,6.907009868930054,19.918699C7.331510268930054,19.345599999999997,7.713559868930053,18.73,8.042549868930053,18.082701C7.416410168930054,17.849199,6.822109968930054,17.5627,6.2490403689300535,17.223101C6.397619968930054,17.117001000000002,6.546199568930054,17.000299,6.684159968930054,16.883499C10.143799568930053,18.4648,13.891099668930053,18.4648,17.308200668930056,16.883499C17.456800668930054,17.000299,17.594800668930052,17.117001000000002,17.743400668930054,17.223101C17.170299668930056,17.5627,16.575999668930052,17.849199,15.949899668930053,18.082701C16.278899668930052,18.73,16.660899668930053,19.345599999999997,17.08539966893005,19.918699C18.815200668930053,19.387999999999998,20.587499668930054,18.581499,22.403298668930052,17.2549C22.859599668930052,12.7341003,21.680598668930052,8.8074703,19.303399668930055,5.3371601ZM8.520099368930055,14.8459C7.4800698689300535,14.8459,6.631069868930053,13.9013996,6.631069868930053,12.7447004C6.631069868930053,11.5879002,7.458840168930053,10.6434002,8.520099368930055,10.6434002C9.570709968930053,10.6434002,10.430299568930053,11.5879002,10.409099368930054,12.7447004C10.409099368930054,13.9013996,9.570709968930053,14.8459,8.520099368930055,14.8459ZM15.493599668930054,14.8459C14.453499668930053,14.8459,13.603399668930054,13.9013996,13.603399668930054,12.7447004C13.603399668930054,11.5879002,14.432299668930053,10.6434002,15.493599668930054,10.6434002C16.544200668930053,10.6434002,17.403798668930055,11.5879002,17.382499668930052,12.7447004C17.382499668930052,13.9013996,16.554799668930052,14.8459,15.493599668930054,14.8459Z" fill="#FFFFFF" fill-opacity="1" style="mix-blend-mode:passthrough"/></g></svg>