<svg xmlns="http://www.w3.org/2000/svg" xmlns:xlink="http://www.w3.org/1999/xlink" fill="none" version="1.1" width="24" height="24" viewBox="0 0 24 24"><defs><clipPath id="master_svg0_40_14"><rect x="0" y="0" width="24" height="24" rx="0"/></clipPath></defs><g clip-path="url(#master_svg0_40_14)"><path d="M22.35639222265625,14.6892690703125C21.95438422265625,15.5251025703125,21.52345122265625,15.7535838703125,20.63266522265625,15.6118674703125C20.06291022265625,15.522210170312501,19.75055922265625,15.186719370312499,19.66668522265625,14.5186319703125C20.01085122265625,14.5186319703125,20.35212522265625,14.5099558703125,20.69051022265625,14.5215244703125C20.91898922265625,14.533092970312499,21.02310722265625,14.455004170312499,21.01443122265625,14.2149557703125C20.99996922265625,13.8678965703125,21.01732222265625,13.5179462703125,21.00286322265625,13.1708869703125C20.99418622265625,12.8816704703125,20.83511722265625,12.6936812703125,20.54011722265625,12.6850037703125C19.94433222265625,12.6734351703125,19.34854922265625,12.6821112703125,18.69492122265625,12.6821112703125L18.69492122265625,15.6321134703125L17.37031222265625,15.6321134703125L17.37031222265625,12.7023558703125L16.03124222265625,12.7023558703125L16.03124222265625,11.3372566703125L17.33271422265625,11.3372566703125L17.33271422265625,10.1832852703125L16.46795822265625,10.1832852703125L16.46795822265625,8.8499999003125L17.34717422265625,8.8066175003125L17.34717422265625,8.3467645645125L18.68335122265625,8.3467645645125C18.63129222265625,8.7169609103125,18.77590222265625,8.8384313603125,19.16055722265625,8.8442156303125C20.18727322265625,8.8586766703125,20.72810722265625,9.4371082703125,20.74835222265625,10.4667167703125C20.75413722265625,10.7501482703125,20.74835222265625,11.0335798703125,20.74835222265625,11.3459327703125C21.57840122265625,11.3054427703125,22.09031322265625,11.6496095703125,22.35639222265625,12.352404070312499L22.35639222265625,14.6892690703125ZM18.69202822265625,10.1196589703125C18.69202822265625,10.5245609703125,18.67467322265625,10.8282377703125,18.70070222265625,11.1290221703125C18.70937922265625,11.2042183703125,18.85109522265625,11.3285813703125,18.93207522265625,11.3285813703125C19.09114422265625,11.3285813703125,19.38903622265625,11.2765221703125,19.39482122265625,11.2186794703125C19.42952522265625,10.9092182703125,19.44109322265625,10.5766200703125,19.34854522265625,10.2845124703125C19.31962422265625,10.1861791703125,18.96967322265625,10.1832866703125,18.69202822265625,10.1196589703125ZM5.74383262265625,8.343873500824C5.73804852265625,10.3712765703125,5.74094052265625,12.4015722703125,5.72937202265625,14.428974670312499C5.72647952265625,15.2966227703125,5.182753822656251,15.759367470312501,4.36427302265625,15.6234359703125C3.82633142265625,15.5337786703125,3.53711562265625,15.1722597703125,3.51687062265625,14.5330915703125L4.40765552265625,14.5330915703125L4.40765552265625,8.3467645645125L5.74383262265625,8.343873500824ZM11.41824822265625,8.343873500824C11.09143452265625,8.9975013703125,10.72702212265625,9.6337764703125,10.49275782265625,10.2555904703125L12.10947422265625,10.1601488703125C11.80290622265625,10.7819628703125,11.52815052265625,11.3343648703125,11.25339512265625,11.8867676703125L11.14638522265625,12.1123556703125C10.85716912265625,12.687894870312501,10.86006162265625,12.6907872703125,11.49633602265625,12.7081408703125C11.56285572265625,12.7081408703125,11.62937542265625,12.716816870312499,11.74795322265625,12.7283854703125C11.57153222265625,13.078337170312501,11.41246322265625,13.3993668703125,11.24471852265625,13.711719070312501C11.21579742265625,13.7637781703125,11.14060112265625,13.8245134703125,11.08854202265625,13.8245134703125C10.61712072265625,13.8216209703125,10.13991352265625,13.8389744703125,9.67427632265625,13.7869152703125C9.333001122656249,13.7493171703125,9.20574622265625,13.4919152703125,9.33589362265625,13.1679930703125C9.497854222656251,12.7717671703125,9.68873692265625,12.3842186703125,9.86805062265625,11.9937763703125L10.07917882265625,11.5252465703125C9.81599232265625,11.5252465703125,9.62800172265625,11.5310308703125,9.43711952265625,11.5223541703125C8.87604042265625,11.5021087703125,8.68804982265625,11.2533836703125,8.91942312265625,10.7414715703125C9.28383492265625,9.934559370312499,9.69452092265625,9.1421074903125,10.08207032265625,8.3438720703125L11.41824822265625,8.343873500824ZM1.65142822265625,13.4369635703125C1.73530089865625,12.9684338703125,1.84231066265625,12.499904170312501,1.90015393265625,12.0313744703125C1.96956575265625,11.4384817703125,1.99848729265625,10.8398048703125,2.04765397265625,10.2179908703125L3.45324322265625,10.2179908703125C3.21319412265625,11.8260309703125,3.4995178226562498,13.526620870312499,2.4467720426562503,15.0045137703125L1.65142840147018,13.6018171703125L1.65142822265625,13.4369635703125ZM22.35639222265625,9.6800498703125C22.05560722265625,10.2035305703125,21.58129522265625,10.2150990703125,21.07227322265625,10.1370110703125C20.91898922265625,9.4718146703125,21.02889222265625,9.0379905703125,21.38173522265625,8.8760294903125C21.73457722265625,8.7140684103125,22.01511722265625,8.8442156303125,22.35639222265625,9.2635786503125L22.35639222265625,9.6800498703125Z" fill="#FFFFFF" fill-opacity="1" style="mix-blend-mode:passthrough"/><path d="M14.625608471875001,14.310381887890625C14.992912271875,14.310381887890625,15.337079071875,14.316166887890624,15.681245771875,14.307489387890625C15.895266571875,14.301704387890625,15.961785271875,14.388469187890625,15.976245871875,14.602489487890626C16.042766571875,15.655235787890625,16.048549671875,15.655235787890625,14.981344271875,15.655235787890625L11.215753571875,15.655235787890625C11.450018371875,15.192491087890625,11.638008071875,14.787587687890625,11.860704471875,14.402931687890625C11.904087071875,14.330627887890625,12.083400771874999,14.316166887890624,12.201978671875,14.313274387890626C12.531684871875001,14.301705787890626,12.867175071875,14.310381887890625,13.231586471875,14.310381887890625L13.231586471875,10.180380087890626L12.378400771875,10.180380087890626L12.378400771875,8.867340087890625L15.470118571875,8.867340087890625L15.470118571875,10.157242987890625L14.625608471875001,10.157242987890625L14.625608471875001,14.310381887890625ZM6.692416906355,10.206408987890626L8.008348671875,10.206408987890626C8.071976471875,11.019105387890626,8.043054371875,11.840478687890625,8.219476471875,12.612685187890625C8.427711771875,13.517931487890625,8.098005971875,14.217833487890626,7.669966221875,14.932196587890626C7.030799391875,14.371117087890624,6.680848359875,12.696557487890626,6.692416906355,10.206408987890626ZM9.063986771875,14.293028387890626L11.195507571875,14.293028387890626C10.958350171875,14.758665587890626,10.770359971875,15.140430487890626,10.562124971875,15.513519287890624C10.508503671875,15.589934387890626,10.423770871875,15.638656187890625,10.330752571875,15.646558287890624C9.708938571875,15.658126787890625,9.087124571875,15.652343287890625,8.372761471875,15.652343287890625C8.644624471875,15.114402287890625,8.867320771875,14.677685687890625,9.063986771875,14.293028387890626Z" fill="#FFFFFF" fill-opacity="1" style="mix-blend-mode:passthrough"/></g></svg>