<svg xmlns="http://www.w3.org/2000/svg" xmlns:xlink="http://www.w3.org/1999/xlink" fill="none" version="1.1" width="24" height="24" viewBox="0 0 24 24"><defs><clipPath id="master_svg0_2_090"><rect x="0" y="0" width="24" height="24" rx="0"/></clipPath></defs><g clip-path="url(#master_svg0_2_090)"><path d="M18.223,3.0860900878692625C18.711201,3.5742399678692625,18.711201,4.3656997878692625,18.223,4.853849887869263L17.08,5.996220087869263L18.25,5.996620187869263C20.3211,5.996620187869263,22,7.6755497878692625,22,9.746620387869264L22,17.246598987869262C22,19.317698987869264,20.3211,20.99659798786926,18.25,20.99659798786926L5.75,20.99659798786926C3.6789300000000003,20.99659798786926,2,19.317698987869264,2,17.246598987869262L2,9.746620387869264C2,7.6755497878692625,3.6789300000000003,5.996620187869263,5.75,5.996620187869263L6.9162502,5.996220087869263L5.7746601,4.854810287869263C5.28651,4.366650087869263,5.28651,3.5752000778692627,5.7746601,3.0870399478692625C6.2628198,2.5988900678692626,7.0542698,2.5988900678692626,7.5424299,3.0870399478692625L10.1941004,5.7386898878692625C10.2728996,5.817530187869263,10.3389997,5.904280187869263,10.3923998,5.996379887869263L13.6046,5.996610187869263C13.6581,5.904069887869262,13.7244,5.816909787869262,13.8036,5.737740087869263L16.455299,3.0860900878692625C16.943399,2.5979299578692627,17.7349,2.5979299578692627,18.223,3.0860900878692625ZM18.25,8.506620687869262L5.75,8.506620687869262C5.0910201,8.506620687869262,4.5511498,9.016539787869263,4.5034299,9.663330287869263L4.5,9.756620687869262L4.5,17.256599987869265C4.5,17.915599987869264,5.0099201,18.455499987869263,5.6567101,18.503200987869263L5.75,18.506599987869265L18.25,18.506599987869265C18.909,18.506599987869265,19.4489,17.99670098786926,19.496599,17.349899987869264L19.5,17.256599987869265L19.5,9.756620687869262C19.5,9.066260587869262,18.940399,8.506620687869262,18.25,8.506620687869262ZM8.25,11.006600587869263C8.9403601,11.006600587869263,9.5,11.566300587869263,9.5,12.256600587869263L9.5,13.506600987869263C9.5,14.196999987869262,8.9403601,14.756600987869263,8.25,14.756600987869263C7.5596399,14.756600987869263,7,14.196999987869262,7,13.506600987869263L7,12.256600587869263C7,11.566300587869263,7.5596399,11.006600587869263,8.25,11.006600587869263ZM15.75,11.006600587869263C16.440399,11.006600587869263,17,11.566300587869263,17,12.256600587869263L17,13.506600987869263C17,14.196999987869262,16.440399,14.756600987869263,15.75,14.756600987869263C15.0596,14.756600987869263,14.5,14.196999987869262,14.5,13.506600987869263L14.5,12.256600587869263C14.5,11.566300587869263,15.0596,11.006600587869263,15.75,11.006600587869263Z" fill="#FFFFFF" fill-opacity="1" style="mix-blend-mode:passthrough"/></g></svg>