<svg xmlns="http://www.w3.org/2000/svg" xmlns:xlink="http://www.w3.org/1999/xlink" fill="none" version="1.1" width="24" height="24" viewBox="0 0 24 24"><defs><clipPath id="master_svg0_2_094"><rect x="0" y="0" width="24" height="24" rx="0"/></clipPath></defs><g clip-path="url(#master_svg0_2_094)"><path d="M12.001000900360108,2C6.475979800360108,2,2.0009799003601074,6.4749999,2.0009799003601074,12C2.0009799003601074,16.424999,4.863480100360107,20.1625,8.838480000360107,21.487499C9.338480000360107,21.575001,9.525980000360107,21.275,9.525980000360107,21.012501C9.525980000360107,20.775,9.513480200360107,19.987499,9.513480200360107,19.15C7.000979900360107,19.612499,6.350979800360108,18.5375,6.150980000360107,17.975C6.038479800360108,17.6875,5.550980100360107,16.799999,5.125979900360107,16.5625C4.775980000360107,16.375,4.275980000360107,15.9125,5.113480100360107,15.9C5.900980000360107,15.8875,6.463480000360107,16.625,6.650980000360107,16.924999C7.550980100360108,18.4375,8.988479600360108,18.012501,9.563480400360106,17.75C9.650980000360107,17.1,9.913479800360108,16.6625,10.200999700360107,16.4125C7.975979800360108,16.1625,5.650980000360107,15.3,5.650980000360107,11.4750004C5.650980000360107,10.3874998,6.038479800360108,9.4875002,6.675980100360108,8.787500399999999C6.5759802003601076,8.537500399999999,6.225979800360108,7.5124998,6.775980000360107,6.1374998C6.775980000360107,6.1374998,7.613480100360108,5.875,9.525980000360107,7.1624999C10.325999700360107,6.9375,11.176000100360108,6.8249998,12.026000900360108,6.8249998C12.876000900360108,6.8249998,13.725998900360107,6.9375,14.526000900360108,7.1624999C16.43849890036011,5.8625001999999995,17.275998900360108,6.1374998,17.275998900360108,6.1374998C17.82599990036011,7.5124998,17.475998900360107,8.537500399999999,17.37599890036011,8.787500399999999C18.013499900360106,9.4875002,18.400998900360108,10.375,18.400998900360108,11.4750004C18.400998900360108,15.3125,16.06349890036011,16.1625,13.838500900360108,16.4125C14.200999900360108,16.725,14.513499900360108,17.325001,14.513499900360108,18.262501C14.513499900360108,19.6,14.501000900360108,20.674999,14.501000900360108,21.012501C14.501000900360108,21.275,14.688500900360108,21.5875,15.188500900360108,21.487499C19.258999900360106,20.1133,21.999899900360106,16.296301,22.00099890036011,12C22.00099890036011,6.4749999,17.525998900360108,2,12.001000900360108,2Z" fill="#FFFFFF" fill-opacity="1" style="mix-blend-mode:passthrough"/></g></svg>