<svg xmlns="http://www.w3.org/2000/svg" xmlns:xlink="http://www.w3.org/1999/xlink" fill="none" version="1.1" width="24" height="24" viewBox="0 0 24 24"><defs><clipPath id="master_svg0_40_29"><rect x="0" y="0" width="24" height="24" rx="0"/></clipPath></defs><g clip-path="url(#master_svg0_40_29)"><path d="M4.862169,6.531361557220459C4.862169,5.196635057220459,5.4051054,3.986292857220459,6.2817447,3.1096318572204593C6.6835265,2.707838757220459,7.1554079,2.376140297220459,7.6772418,2.134684647220459C8.293980099999999,1.849316407220459,8.980494,1.690000057220459,9.7035275,1.690000057220459C11.5172377,1.690000057220459,13.100219,2.692977557220459,13.929333,4.173049657220459C14.675651,3.473297357220459,15.677938,3.043453557220459,16.779177,3.043453557220459C16.990264,3.043453557220459,17.197738,3.059214257220459,17.400484,3.089620257220459C19.406935,3.390529257220459,20.95035,5.1257877572204595,20.95035,7.214624857220459C20.95035,7.502109957220459,20.921112,7.782895057220459,20.865456,8.05416295722046C20.475843,9.953065357220458,18.791601999999997,11.385625357220459,16.779177,11.385625357220459C16.692346999999998,11.385625357220459,16.60613,11.38295605722046,16.520603,11.377693657220458C16.253323,11.361248457220459,15.992793,11.319486157220458,15.741372,11.254786957220459C14.785979,11.008916357220459,13.962116,10.431832757220459,13.399162,9.654028457220459C13.288063,9.785311257220458,13.170135,9.91062025722046,13.045923,10.02940605722046C12.4714384,10.57878735722046,11.7625122,10.98860885722046,10.973977099999999,11.203469757220459C10.569016900000001,11.31380895722046,10.1430621,11.37273165722046,9.7035379,11.37273165722046C7.0339136,11.37273165722046,4.862169,9.20081425722046,4.862169,6.531361557220459ZM12.6083241,6.531357257220459C12.6083241,8.13306475722046,11.3053799,9.436180157220459,9.7036734,9.436180157220459C8.1019664,9.436180157220459,6.7988513,8.13306475722046,6.7988513,6.531357257220459C6.7988513,4.929650257220459,8.1019664,3.626534657220459,9.7036734,3.626534657220459C11.3053799,3.626534657220459,12.6083241,4.929650257220459,12.6083241,6.531357257220459ZM16.779151,4.979987157220458C18.011313,4.979987157220458,19.013775,5.982449557220459,19.013775,7.214611957220459C19.013775,8.44677255722046,18.011313,9.449063257220459,16.779151,9.449063257220459C15.54716,9.449063257220459,14.544869,8.44677165722046,14.544869,7.214610557220459C14.544869,5.982449557220459,15.54716,4.979987157220458,16.779151,4.979987157220458ZM17.350482,14.08822705722046C18.295047,14.08822705722046,19.063515,14.85686605722046,19.063515,15.801433057220459L19.063515,18.65660205722046C19.063515,19.60117105722046,18.294874999999998,20.36981105722046,17.350308,20.36981105722046L12.1117353,20.36981105722046C11.1671705,20.36981105722046,10.3985295,19.60117105722046,10.3985295,18.65660205722046L10.3985295,15.801433057220459C10.3985295,14.85686605722046,11.1671705,14.08822705722046,12.1117353,14.08822705722046L17.350482,14.08822705722046ZM5.6604928999999995,19.198121057220458C5.2215405,19.419055057220458,4.8623028999999995,19.19777605722046,4.8623028999999995,18.706253057220458L4.8623028999999995,15.770677057220459C4.8623028999999995,15.279155057220459,5.221539,15.05770305722046,5.6606653,15.278638057220459L8.462235,16.688785057220457L8.462235,17.788145057220458L5.6604928999999995,19.198121057220458ZM17.350246,12.15185905722046C17.647042,12.15185905722046,17.935674,12.18746905722046,18.212094999999998,12.254641057220459C19.809996,12.642940057220459,20.999828,14.085925057220459,20.999828,15.80161305722046L21,18.65661405722046C21,18.908172057220458,20.974421,19.15386305722046,20.925726,19.39122705722046C20.584866,21.05279105722046,19.111347,22.306196057220458,17.350417999999998,22.306196057220458L12.1116724,22.306196057220458C10.5326419,22.306196057220458,9.1848588,21.29806305722046,8.677527900000001,19.89135505722046L5.7307866,21.314214057220457C5.6912117,21.33332405722046,5.6515808,21.35125505722046,5.6119103,21.36799905722046C5.3341829999999995,21.48523705722046,5.0545158,21.54442705722046,4.7786734,21.54442005722046C3.74803591,21.54442005722046,3.000011605532,20.72664205722046,3.000011605532,19.600482057220457L3,14.88367805722046C3,14.461170057220459,3.10519344,14.08212405722046,3.29103631,13.773364057220459C3.5209164,13.391436057220458,3.87419552,13.117048057220458,4.3044209,13.00095205722046C4.4538658,12.96062505722046,4.6125951,12.939398057220458,4.7786618,12.939398057220458C5.0939186,12.939398057220458,5.4141562,13.016880057220458,5.7306156,13.16978405722046L8.6699691,14.589037057220459C9.0692892,13.45911305722046,10.0096426,12.58247105722046,11.1783056,12.272877057220459C11.4763107,12.193933057220459,11.7891617,12.15185905722046,12.1116724,12.15185905722046L17.350246,12.15185905722046Z" fill-rule="evenodd" fill="#FFFFFF" fill-opacity="1" style="mix-blend-mode:passthrough"/></g></svg>