<svg xmlns="http://www.w3.org/2000/svg" xmlns:xlink="http://www.w3.org/1999/xlink" fill="none" version="1.1" width="24" height="24" viewBox="0 0 24 24"><defs><clipPath id="master_svg0_40_22"><rect x="0" y="0" width="24" height="24" rx="0"/></clipPath></defs><g clip-path="url(#master_svg0_40_22)"><path d="M16,8.2453699L16,15.5C16,19.089899,13.0899,22,9.5,22C5.9101501,22,3,19.089899,3,15.5C3,11.9101,5.9101501,9,9.5,9C10.0163002,9,10.5185003,9.060190200000001,11,9.173930200000001L11,12.3368C10.5453997,12.1208,10.0368004,12,9.5,12C7.5669999,12,6,13.567,6,15.5C6,17.433001,7.5669999,19,9.5,19C11.4329996,19,13,17.433001,13,15.5L13,2L16,2C16,4.7614198000000005,18.238599999999998,7,21,7L21,10C19.108101,10,17.3696,9.343279800000001,16,8.2453699Z" fill="#FFFFFF" fill-opacity="1" style="mix-blend-mode:passthrough"/></g></svg>